<?xml version="1.0" encoding="iso-8859-1"?>
<!-- Uploaded to: SVG Repo, www.svgrepo.com, Generator: SVG Repo Mixer Tools -->
<svg height="800px" width="800px" version="1.1" id="Layer_1" xmlns="http://www.w3.org/2000/svg" xmlns:xlink="http://www.w3.org/1999/xlink" 
	 viewBox="0 0 503.322 503.322" xml:space="preserve">
<g>
	<g>
		<path style="fill:#BDC3C7;" d="M251.664,117.153c-4.799,0-8.678-3.888-8.678-8.678V73.763c0-4.79,3.879-8.678,8.678-8.678
			s8.678,3.888,8.678,8.678v34.712C260.342,113.265,256.463,117.153,251.664,117.153"/>
		<path style="fill:#BDC3C7;" d="M295.054,82.441h-86.78c-4.799,0-8.678-3.888-8.678-8.678s3.879-8.678,8.678-8.678h86.78
			c4.799,0,8.678,3.888,8.678,8.678S299.853,82.441,295.054,82.441"/>
	</g>
	<polygon style="fill:#667D8C;" points="0,438.237 503.322,438.237 503.322,386.169 0,386.169 	"/>
	<polygon style="fill:#F29C1E;" points="86.78,386.169 416.542,386.169 416.542,351.458 86.78,351.458 	"/>
	<path style="fill:#F0C419;" d="M17.359,351.458c0-134.196,100.109-242.983,234.305-242.983S485.97,217.262,485.97,351.458H17.359z"
		/>
	<path style="fill:#EDE61A;" d="M60.376,299.398c-0.79,0-1.579-0.113-2.36-0.33c-4.625-1.302-7.298-6.101-5.996-10.709
		c22.346-79.169,84.975-136.912,163.432-150.71c4.712-0.85,9.216,2.317,10.049,7.038c0.824,4.721-2.326,9.225-7.047,10.058
		c-71.836,12.635-129.206,65.64-149.738,138.327C67.64,296.899,64.16,299.398,60.376,299.398"/>
</g>
</svg>