<?xml version="1.0" encoding="iso-8859-1"?>
<!-- Uploaded to: SVG Repo, www.svgrepo.com, Generator: SVG Repo Mixer Tools -->
<svg height="800px" width="800px" version="1.1" id="Layer_1" xmlns="http://www.w3.org/2000/svg" xmlns:xlink="http://www.w3.org/1999/xlink" 
	 viewBox="0 0 512 512" xml:space="preserve">
<path style="fill:#FFA81F;" d="M112.902,197.507l41.775,108.858l70.38,184.328c4.866,12.744,17.3,21.306,30.941,21.306
	c13.641,0,26.076-8.563,30.942-21.306l70.381-184.329l41.775-108.857L112.902,197.507L112.902,197.507z"/>
<path style="fill:#715539;" d="M333.988,282.909c-12.862,0-23.327,10.464-23.327,23.327c0,8.653-7.015,15.668-15.668,15.668
	c-8.653,0-15.668-7.015-15.668-15.668c0-12.863-10.464-23.327-23.327-23.327s-23.327,10.464-23.327,23.327
	c0,8.653-7.015,15.668-15.668,15.668s-15.668-7.015-15.668-15.668c0-12.863-10.465-23.327-23.327-23.327
	c-12.862,0-23.327,10.464-23.327,23.327c0,0.044-0.006,0.086-0.006,0.13l70.38,184.328c4.866,12.744,17.3,21.306,30.941,21.306
	c13.641,0,26.076-8.563,30.942-21.306l70.381-184.329c0-0.043-0.006-0.085-0.006-0.128
	C357.315,293.374,346.851,282.909,333.988,282.909z"/>
<path style="fill:#FF0536;" d="M423.546,205.874c2.352-11.379,3.546-23.081,3.546-34.781C427.092,76.751,350.341,0,255.999,0
	S84.908,76.751,84.908,171.093c0,11.694,1.193,23.395,3.544,34.778c1.503,7.277,7.912,12.497,15.343,12.497h17.284h269.843h17.282
	C415.633,218.368,422.042,213.15,423.546,205.874z"/>
<path style="opacity:0.15;enable-background:new    ;" d="M255.999,0v512c13.641,0,26.075-8.563,30.941-21.306l70.381-184.329
	l33.6-87.996h17.282c7.43,0,13.839-5.219,15.343-12.494c2.352-11.379,3.546-23.081,3.546-34.781C427.092,76.751,350.341,0,255.999,0
	z"/>
</svg>