<?xml version="1.0" encoding="iso-8859-1"?>
<!-- Uploaded to: SVG Repo, www.svgrepo.com, Generator: SVG Repo Mixer Tools -->
<svg height="800px" width="800px" version="1.1" id="Layer_1" xmlns="http://www.w3.org/2000/svg" xmlns:xlink="http://www.w3.org/1999/xlink" 
	 viewBox="0 0 512 512" xml:space="preserve">
<g transform="translate(0 1)">
	<g>
		<path style="fill:#D6D9DB;" d="M151.83,207.271h34.712V186.73c0-3.029-2.465-5.493-5.493-5.493h-23.726
			c-3.029,0-5.493,2.465-5.493,5.493L151.83,207.271L151.83,207.271z M195.22,224.627h-52.068c-4.79,0-8.678-3.888-8.678-8.678
			V186.73c0-12.6,10.249-22.849,22.849-22.849h23.726c12.6,0,22.849,10.249,22.849,22.849v29.219
			C203.897,220.739,200.01,224.627,195.22,224.627L195.22,224.627z"/>
		<path style="fill:#D6D9DB;" d="M316.711,215.949h52.068v-69.424h-52.068V215.949z M377.457,233.305h-69.424
			c-4.79,0-8.678-3.888-8.678-8.678v-86.78c0-4.79,3.888-8.678,8.678-8.678h69.424c4.799,0,8.678,3.888,8.678,8.678v86.78
			C386.135,229.417,382.256,233.305,377.457,233.305L377.457,233.305z"/>
		<path style="fill:#D6D9DB;" d="M394.813,146.525H290.677c-4.79,0-8.678-3.888-8.678-8.678s3.888-8.678,8.678-8.678h104.136
			c4.79,0,8.678,3.888,8.678,8.678S399.603,146.525,394.813,146.525"/>
	</g>
	<path style="fill:#CE9865;" d="M394.813,215.949H289.731c-13.859,0-25.088,11.229-25.088,25.088v87.726h34.712v130.169h96.404
		c13.859,0,25.088-11.229,25.088-25.088V241.983C420.847,227.604,409.192,215.949,394.813,215.949"/>
	<polygon style="fill:#86573E;" points="91.084,458.932 299.355,458.932 299.355,328.763 91.084,328.763 	"/>
	<g>
		<path style="fill:#573728;" d="M91.084,372.153L91.084,372.153v-43.39h43.39C134.474,352.723,115.044,372.153,91.084,372.153"/>
		<path style="fill:#573728;" d="M255.965,328.763L255.965,328.763h43.39v43.39C275.395,372.153,255.965,352.723,255.965,328.763"/>
		<path style="fill:#573728;" d="M299.355,415.542L299.355,415.542v43.39h-43.39C255.965,434.972,275.395,415.542,299.355,415.542"
			/>
		<path style="fill:#573728;" d="M134.474,458.932L134.474,458.932h-43.39v-43.39C115.044,415.542,134.474,434.972,134.474,458.932"
			/>
	</g>
	<polygon style="fill:#5E5D58;" points="229.931,328.763 109.082,328.763 125.796,207.271 212.575,207.271 	"/>
	<g>
		<polygon style="fill:#FFD06C;" points="186.542,250.661 151.83,250.661 125.796,207.271 212.575,207.271 		"/>
		<polygon style="fill:#FFD06C;" points="299.355,285.373 386.135,285.373 386.135,250.661 299.355,250.661 		"/>
	</g>
	<g>
		<path style="fill:#7F8C8D;" d="M125.831,484.966c0-14.379-11.655-26.034-26.034-26.034s-26.034,11.655-26.034,26.034
			c0,14.379,11.655,26.034,26.034,26.034S125.831,499.346,125.831,484.966"/>
		<path style="fill:#7F8C8D;" d="M438.237,484.966c0-14.379-11.654-26.034-26.034-26.034c-14.379,0-26.034,11.655-26.034,26.034
			c0,14.379,11.654,26.034,26.034,26.034C426.583,511,438.237,499.346,438.237,484.966"/>
	</g>
	<g>
		<path style="fill:#667D8C;" d="M464.271,467.61H47.729V181.237c0-62.204,50.61-112.814,112.814-112.814h190.915
			c62.204,0,112.814,50.61,112.814,112.814V467.61z M65.085,450.254h381.831V181.237c0-52.632-42.826-95.458-95.458-95.458H160.542
			c-52.632,0-95.458,42.826-95.458,95.458V450.254z"/>
		<path style="fill:#667D8C;" d="M325.424,85.78H186.576V51.103c0-9.589,7.801-17.391,17.391-17.391h104.066
			c9.589,0,17.391,7.801,17.391,17.391V85.78z M203.941,68.424h104.127V51.103l-104.101-0.035L203.941,68.424z"/>
		<path style="fill:#667D8C;" d="M290.712,51.068h-69.424V33.712C221.288,14.568,236.856-1,256-1s34.712,15.568,34.712,34.712
			V51.068z M238.644,33.712h34.712c0-9.572-7.784-17.356-17.356-17.356S238.644,24.14,238.644,33.712z"/>
	</g>
	<path style="fill:#CBB292;" d="M490.305,467.61H21.695c-4.79,0-8.678-3.888-8.678-8.678c0-4.79,3.888-8.678,8.678-8.678h468.61
		c4.79,0,8.678,3.888,8.678,8.678C498.983,463.722,495.095,467.61,490.305,467.61"/>
</g>
</svg>