<?xml version="1.0" encoding="iso-8859-1"?>
<!-- Uploaded to: SVG Repo, www.svgrepo.com, Generator: SVG Repo Mixer Tools -->
<svg height="800px" width="800px" version="1.1" id="Layer_1" xmlns="http://www.w3.org/2000/svg" xmlns:xlink="http://www.w3.org/1999/xlink" 
	 viewBox="0 0 512.001 512.001" xml:space="preserve">
<g>
	<g>
		<path style="fill:#CAD3DB;" d="M177.899,277.695c-4.799,0-8.678-3.888-8.678-8.678v-95.458c0-4.79,3.879-8.678,8.678-8.678
			c4.799,0,8.678,3.888,8.678,8.678v95.458C186.577,273.807,182.698,277.695,177.899,277.695"/>
		<path style="fill:#CAD3DB;" d="M177.899,182.237c-4.799,0-8.678-3.888-8.678-8.678V8.678c0-4.79,3.879-8.678,8.678-8.678
			c4.799,0,8.678,3.888,8.678,8.678v164.881C186.577,178.35,182.698,182.237,177.899,182.237"/>
		<path style="fill:#CAD3DB;" d="M334.102,269.017L334.102,269.017c-22.554-33.957-34.608-73.815-34.634-114.575l-0.052-64.364
			c-0.017-24.611,8.331-48.492,23.665-67.732c6.89-8.635,17.33-13.668,28.377-13.668c4.79,0,8.678,3.888,8.678,8.678v251.661
			H334.102z"/>
		<path style="fill:#CAD3DB;" d="M177.899,182.237c-28.715,0-52.068-23.352-52.068-52.068V8.678c0-4.79,3.879-8.678,8.678-8.678
			c4.799,0,8.678,3.888,8.678,8.678v121.492c0,19.144,15.568,34.712,34.712,34.712s34.712-15.568,34.712-34.712V8.678
			c0-4.79,3.879-8.678,8.678-8.678c4.799,0,8.678,3.888,8.678,8.678v121.492C229.967,158.885,206.614,182.237,177.899,182.237"/>
	</g>
	<g>
		<path style="fill:#7F6E5D;" d="M386.17,477.289c0,19.17-15.542,34.712-34.712,34.712h-17.356
			c-19.17,0-34.712-15.542-34.712-34.712V303.73c0-19.17,15.542-34.712,34.712-34.712l0,0h17.356
			c19.17,0,34.712,15.542,34.712,34.712V477.289z"/>
		<path style="fill:#7F6E5D;" d="M221.289,477.289c0,19.17-15.542,34.712-34.712,34.712h-17.356
			c-19.17,0-34.712-15.542-34.712-34.712V303.73c0-19.17,15.542-34.712,34.712-34.712l0,0h17.356
			c19.17,0,34.712,15.542,34.712,34.712V477.289z"/>
	</g>
	<g>
		<path style="fill:#C0A78F;" d="M351.458,390.508c0-4.79-3.888-8.678-8.678-8.678c-4.79,0-8.678,3.888-8.678,8.678
			s3.888,8.678,8.678,8.678C347.57,399.186,351.458,395.299,351.458,390.508"/>
		<path style="fill:#C0A78F;" d="M186.577,390.508c0-4.79-3.888-8.678-8.678-8.678s-8.678,3.888-8.678,8.678
			s3.888,8.678,8.678,8.678S186.577,395.299,186.577,390.508"/>
	</g>
</g>
</svg>