<?xml version="1.0" encoding="iso-8859-1"?>
<!-- Uploaded to: SVG Repo, www.svgrepo.com, Generator: SVG Repo Mixer Tools -->
<svg height="800px" width="800px" version="1.1" id="Layer_1" xmlns="http://www.w3.org/2000/svg" xmlns:xlink="http://www.w3.org/1999/xlink" 
	 viewBox="0 0 512 512" xml:space="preserve">
<g>
	<g>
		<path style="fill:#CAD3DB;" d="M114.75,503.172c-1.324,0-2.675-0.3-3.937-0.927c-4.361-2.189-6.135-7.486-3.955-11.847
			l17.655-35.31c2.189-4.352,7.477-6.118,11.847-3.955c4.361,2.189,6.135,7.486,3.955,11.847l-17.655,35.31
			C121.106,501.389,117.99,503.172,114.75,503.172"/>
		<path style="fill:#CAD3DB;" d="M406.078,503.172c-3.24,0-6.356-1.783-7.91-4.882l-17.655-35.31
			c-2.18-4.361-0.406-9.657,3.955-11.847c4.361-2.163,9.657-0.397,11.847,3.955l17.655,35.31c2.18,4.361,0.406,9.657-3.955,11.847
			C408.753,502.872,407.402,503.172,406.078,503.172"/>
	</g>
	<path style="fill:#F3D55B;" d="M494.345,317.793H17.655C7.945,317.793,0,309.848,0,300.138c0-9.71,7.945-17.655,17.655-17.655
		h476.69c9.71,0,17.655,7.945,17.655,17.655C512,309.848,504.055,317.793,494.345,317.793"/>
	<path style="fill:#CBAC40;" d="M35.31,317.793H476.69l-25.282,101.12c-5.897,23.578-27.074,40.121-51.385,40.121H111.978
		c-24.311,0-45.489-16.543-51.385-40.121L35.31,317.793z"/>
	<path style="fill:#B6D4E9;" d="M158.897,247.172c-1.589,0-3.107,0.265-4.643,0.468c-6.047-10.761-17.443-18.123-30.667-18.123
		c-17.832,0-32.424,13.259-34.816,30.429c-6.479-7.742-16.093-12.774-26.977-12.774c-19.5,0-35.31,15.81-35.31,35.31h167.724
		C194.207,262.983,178.397,247.172,158.897,247.172"/>
	<path style="fill:#CAD3DB;" d="M485.517,282.483h-17.655V88.276c0-34.066-27.719-61.793-61.793-61.793
		c-36.59,0-52.966,31.038-52.966,61.793h-17.655c0-46.777,29.043-79.448,70.621-79.448c43.803,0,79.448,35.637,79.448,79.448
		V282.483z"/>
	<g>
		<path style="fill:#B6D4E9;" d="M308.966,172.138c-4.873,0-8.828-3.946-8.828-8.828v-4.414c0-4.882,3.955-8.828,8.828-8.828
			s8.828,3.946,8.828,8.828v4.414C317.793,168.192,313.838,172.138,308.966,172.138"/>
		<path style="fill:#B6D4E9;" d="M308.966,212.491c-4.873,0-8.828-3.946-8.828-8.828v-10.09c0-4.873,3.955-8.828,8.828-8.828
			s8.828,3.955,8.828,8.828v10.09C317.793,208.546,313.838,212.491,308.966,212.491"/>
		<path style="fill:#B6D4E9;" d="M308.966,247.172c-4.873,0-8.828-3.946-8.828-8.828v-4.414c0-4.882,3.955-8.828,8.828-8.828
			s8.828,3.946,8.828,8.828v4.414C317.793,243.226,313.838,247.172,308.966,247.172"/>
		<path style="fill:#B6D4E9;" d="M344.276,172.138c-4.873,0-8.828-3.946-8.828-8.828v-4.414c0-4.882,3.955-8.828,8.828-8.828
			c4.873,0,8.828,3.946,8.828,8.828v4.414C353.103,168.192,349.149,172.138,344.276,172.138"/>
		<path style="fill:#B6D4E9;" d="M344.276,212.491c-4.873,0-8.828-3.946-8.828-8.828v-10.09c0-4.873,3.955-8.828,8.828-8.828
			c4.873,0,8.828,3.955,8.828,8.828v10.09C353.103,208.546,349.149,212.491,344.276,212.491"/>
		<path style="fill:#B6D4E9;" d="M344.276,247.172c-4.873,0-8.828-3.946-8.828-8.828v-4.414c0-4.882,3.955-8.828,8.828-8.828
			c4.873,0,8.828,3.946,8.828,8.828v4.414C353.103,243.226,349.149,247.172,344.276,247.172"/>
		<path style="fill:#B6D4E9;" d="M379.586,172.138c-4.873,0-8.828-3.946-8.828-8.828v-4.414c0-4.882,3.955-8.828,8.828-8.828
			c4.873,0,8.828,3.946,8.828,8.828v4.414C388.414,168.192,384.459,172.138,379.586,172.138"/>
		<path style="fill:#B6D4E9;" d="M379.586,212.491c-4.873,0-8.828-3.946-8.828-8.828v-10.09c0-4.873,3.955-8.828,8.828-8.828
			c4.873,0,8.828,3.955,8.828,8.828v10.09C388.414,208.546,384.459,212.491,379.586,212.491"/>
		<path style="fill:#B6D4E9;" d="M379.586,247.172c-4.873,0-8.828-3.946-8.828-8.828v-4.414c0-4.882,3.955-8.828,8.828-8.828
			c4.873,0,8.828,3.946,8.828,8.828v4.414C388.414,243.226,384.459,247.172,379.586,247.172"/>
	</g>
	<path style="fill:#E6EEF3;" d="M379.586,132.414h-70.621c-4.873,0-8.828-3.946-8.828-8.828c0-24.338,19.8-44.138,44.138-44.138
		s44.138,19.8,44.138,44.138C388.414,128.468,384.459,132.414,379.586,132.414"/>
</g>
</svg>