<?xml version="1.0" encoding="iso-8859-1"?>
<!-- Uploaded to: SVG Repo, www.svgrepo.com, Generator: SVG Repo Mixer Tools -->
<svg height="800px" width="800px" version="1.1" id="Layer_1" xmlns="http://www.w3.org/2000/svg" xmlns:xlink="http://www.w3.org/1999/xlink" 
	 viewBox="0 0 512 512" xml:space="preserve">
<g>
	<path style="fill:#E1705C;" d="M251.587,361.931v-79.448h52.489l26.756-53.513C383.427,123.772,306.936,0,189.317,0l0,0
		C71.698,0-4.793,123.772,47.802,228.97L189.317,512l62.27-124.54V361.931z"/>
	<path style="fill:#FFFFFF;" d="M277.594,158.897c0-48.755-39.521-88.276-88.276-88.276s-88.276,39.521-88.276,88.276
		s39.521,88.276,88.276,88.276S277.594,207.651,277.594,158.897"/>
	<path style="fill:#E2DFDB;" d="M136.354,167.724c-4.882,0-8.828-3.946-8.828-8.828c0-34.066,27.727-61.793,61.793-61.793
		c4.882,0,8.828,3.946,8.828,8.828c0,4.882-3.946,8.828-8.828,8.828c-24.338,0-44.138,19.8-44.138,44.138
		C145.182,163.778,141.236,167.724,136.354,167.724"/>
	<polygon style="fill:#25B99A;" points="410.483,282.483 410.483,361.931 322.207,361.931 322.207,282.483 251.587,282.483 
		251.587,512 322.207,512 322.207,432.552 410.483,432.552 410.483,512 481.104,512 481.104,282.483 	"/>
</g>
</svg>