<?xml version="1.0" encoding="iso-8859-1"?>
<!-- Uploaded to: SVG Repo, www.svgrepo.com, Generator: SVG Repo Mixer Tools -->
<svg height="800px" width="800px" version="1.1" id="Layer_1" xmlns="http://www.w3.org/2000/svg" xmlns:xlink="http://www.w3.org/1999/xlink" 
	 viewBox="0 0 503.322 503.322" xml:space="preserve">
<g>
	<polygon style="fill:#805333;" points="0,295.051 503.322,295.051 503.322,242.983 0,242.983 	"/>
	<path style="fill:#E9866F;" d="M179.193,125.812c-11.385,8.166-25.288,13.034-40.344,13.034c-15.048,0-28.958-4.868-40.344-13.034
		c-17.582,12.592-29.08,33.15-29.08,56.424v60.746h138.847v-60.746C208.273,158.962,196.775,138.404,179.193,125.812"/>
	<path style="fill:#FDC693;" d="M190.919,52.068c0,28.759-23.309,52.068-52.068,52.068S86.783,80.827,86.783,52.068
		S110.092,0,138.851,0S190.919,23.309,190.919,52.068"/>
	<polygon style="fill:#BDC3C7;" points="338.441,216.949 425.22,216.949 425.22,182.237 338.441,182.237 	"/>
	<path style="fill:#E4C05C;" d="M433.902,182.237H329.766c0-28.759,23.309-52.068,52.068-52.068l0,0
		C410.593,130.169,433.902,153.479,433.902,182.237"/>
	<polygon style="fill:#556080;" points="329.763,242.983 433.898,242.983 433.898,216.949 329.763,216.949 	"/>
	<path style="fill:#CB8252;" d="M477.292,503.322H26.037c-9.589,0-17.356-7.767-17.356-17.356V295.051h485.966v190.915
		C494.648,495.555,486.881,503.322,477.292,503.322"/>
	<polygon style="fill:#E4C05C;" points="138.851,208.271 112.817,164.881 138.851,138.847 164.885,164.881 	"/>
	<path style="fill:#F0C419;" d="M312.41,399.186c0-38.339-31.084-69.424-69.424-69.424s-69.424,31.084-69.424,69.424
		s31.084,69.424,69.424,69.424S312.41,437.526,312.41,399.186"/>
	<g>
		<path style="fill:#BE9819;" d="M242.987,442.576c-23.925,0-43.39-19.465-43.39-43.39c0-4.79,3.888-8.678,8.678-8.678
			s8.678,3.888,8.678,8.678c0,14.353,11.681,26.034,26.034,26.034c4.79,0,8.678,3.888,8.678,8.678S247.777,442.576,242.987,442.576"
			/>
		<path style="fill:#BE9819;" d="M277.698,407.864c-4.79,0-8.678-3.888-8.678-8.678c0-14.353-11.681-26.034-26.034-26.034
			c-4.79,0-8.678-3.888-8.678-8.678s3.888-8.678,8.678-8.678c23.925,0,43.39,19.465,43.39,43.39
			C286.376,403.977,282.489,407.864,277.698,407.864"/>
	</g>
	<g>
		<path style="fill:#805333;" d="M433.902,425.22c-4.79,0-8.678,3.888-8.678,8.678s3.888,8.678,8.678,8.678h60.746V425.22H433.902z"
			/>
		<path style="fill:#805333;" d="M433.902,459.932c-4.79,0-8.678,3.888-8.678,8.678s3.888,8.678,8.678,8.678h60.746v-17.356H433.902
			z"/>
		<path style="fill:#805333;" d="M69.427,442.576c4.79,0,8.678-3.888,8.678-8.678s-3.888-8.678-8.678-8.678H8.681v17.356H69.427z"/>
		<path style="fill:#805333;" d="M69.427,477.288c4.79,0,8.678-3.888,8.678-8.678s-3.888-8.678-8.678-8.678H8.681v17.356H69.427z"/>
	</g>
</g>
</svg>