<?xml version="1.0" encoding="iso-8859-1"?>
<!-- Uploaded to: SVG Repo, www.svgrepo.com, Generator: SVG Repo Mixer Tools -->
<svg height="800px" width="800px" version="1.1" id="Layer_1" xmlns="http://www.w3.org/2000/svg" xmlns:xlink="http://www.w3.org/1999/xlink" 
	 viewBox="0 0 503.322 503.322" xml:space="preserve">
<g>
	<path style="fill:#BDC3C7;" d="M156.203,91.119h190.915V39.051c0-4.782-3.896-8.678-8.678-8.678H164.881
		c-4.782,0-8.678,3.896-8.678,8.678V91.119z M355.797,108.475H147.525c-4.79,0-8.678-3.888-8.678-8.678V39.051
		c0-14.353,11.681-26.034,26.034-26.034h173.559c14.353,0,26.034,11.681,26.034,26.034v60.746
		C364.475,104.587,360.587,108.475,355.797,108.475L355.797,108.475z"/>
	<path style="fill:#556080;" d="M0,117.281c0-14.449,11.715-26.164,26.164-26.164h450.994c14.449,0,26.164,11.715,26.164,26.164
		v312.146c0,14.449-11.715,26.164-26.164,26.164H26.164C11.715,455.591,0,443.876,0,429.427V117.281z"/>
	<path style="fill:#7887AC;" d="M381.831,134.508c-2.222,0-4.443-0.85-6.135-2.543l-34.712-34.712
		c-3.393-3.393-3.393-8.878,0-12.271c3.393-3.393,8.878-3.393,12.271,0l34.712,34.712c3.393,3.393,3.393,8.878,0,12.271
		C386.274,133.658,384.052,134.508,381.831,134.508"/>
	<path style="fill:#F0C419;" d="M433.898,221.288c-2.222,0-4.443-0.85-6.135-2.543l-52.068-52.068
		c-1.631-1.623-2.543-3.836-2.543-6.135v-34.712c0-4.79,3.888-8.678,8.678-8.678h34.712c2.3,0,4.513,0.911,6.135,2.543
		l52.068,52.068c3.393,3.393,3.393,8.878,0,12.271l-34.712,34.712C438.341,220.438,436.12,221.288,433.898,221.288"/>
	<g>
		<path style="fill:#BDC3C7;" d="M69.424,490.305L69.424,490.305c-19.17,0-34.712-15.542-34.712-34.712h69.424
			C104.136,474.763,88.593,490.305,69.424,490.305"/>
		<path style="fill:#BDC3C7;" d="M433.898,490.305L433.898,490.305c19.17,0,34.712-15.542,34.712-34.712h-69.424
			C399.186,474.763,414.729,490.305,433.898,490.305"/>
	</g>
	<polygon style="fill:#384664;" points="208.268,238.644 295.047,238.644 295.047,169.22 208.268,169.22 	"/>
	<g>
		<polygon style="fill:#BDC3C7;" points="225.624,169.22 277.691,169.22 277.691,91.119 225.624,91.119 		"/>
		<polygon style="fill:#BDC3C7;" points="225.624,455.593 277.691,455.593 277.691,238.644 225.624,238.644 		"/>
	</g>
</g>
</svg>