<?xml version="1.0" encoding="iso-8859-1"?>
<!-- Uploaded to: SVG Repo, www.svgrepo.com, Generator: SVG Repo Mixer Tools -->
<svg height="800px" width="800px" version="1.1" id="Layer_1" xmlns="http://www.w3.org/2000/svg" xmlns:xlink="http://www.w3.org/1999/xlink" 
	 viewBox="0 0 503.322 503.322" xml:space="preserve">
<g>
	<path style="fill:#E6EEF3;" d="M0,472.949V143.186h503.322v329.763c0,9.589-7.767,17.356-17.356,17.356H17.356
		C7.767,490.305,0,482.538,0,472.949"/>
	<path style="fill:#E1705C;" d="M0,143.186V73.763c0-9.589,7.767-17.356,17.356-17.356h468.61c9.589,0,17.356,7.767,17.356,17.356
		v69.424H0z"/>
	<g>
		<path style="fill:#E6EEF3;" d="M442.576,99.797c-4.79,0-8.678-3.879-8.678-8.678s3.888-8.678,8.678-8.678
			c14.353,0,26.034-11.681,26.034-26.034s-11.681-26.034-26.034-26.034s-26.034,11.681-26.034,26.034
			c0,4.799-3.888,8.678-8.678,8.678c-4.79,0-8.678-3.879-8.678-8.678c0-23.925,19.465-43.39,43.39-43.39s43.39,19.465,43.39,43.39
			S466.501,99.797,442.576,99.797"/>
		<path style="fill:#E6EEF3;" d="M347.119,99.797c-4.79,0-8.678-3.879-8.678-8.678s3.888-8.678,8.678-8.678
			c14.353,0,26.034-11.681,26.034-26.034s-11.681-26.034-26.034-26.034c-14.353,0-26.034,11.681-26.034,26.034
			c0,4.799-3.888,8.678-8.678,8.678c-4.79,0-8.678-3.879-8.678-8.678c0-23.925,19.465-43.39,43.39-43.39
			c23.925,0,43.39,19.465,43.39,43.39S371.044,99.797,347.119,99.797"/>
		<path style="fill:#E6EEF3;" d="M251.661,99.797c-4.79,0-8.678-3.879-8.678-8.678s3.888-8.678,8.678-8.678
			c14.353,0,26.034-11.681,26.034-26.034s-11.681-26.034-26.034-26.034c-14.353,0-26.034,11.681-26.034,26.034
			c0,4.799-3.888,8.678-8.678,8.678s-8.678-3.879-8.678-8.678c0-23.925,19.465-43.39,43.39-43.39s43.39,19.465,43.39,43.39
			S275.586,99.797,251.661,99.797"/>
		<path style="fill:#E6EEF3;" d="M156.203,99.797c-4.79,0-8.678-3.879-8.678-8.678s3.888-8.678,8.678-8.678
			c14.353,0,26.034-11.681,26.034-26.034s-11.681-26.034-26.034-26.034c-14.353,0-26.034,11.681-26.034,26.034
			c0,4.799-3.888,8.678-8.678,8.678s-8.678-3.879-8.678-8.678c0-23.925,19.465-43.39,43.39-43.39s43.39,19.465,43.39,43.39
			S180.129,99.797,156.203,99.797"/>
		<path style="fill:#E6EEF3;" d="M60.746,99.797c-4.79,0-8.678-3.879-8.678-8.678s3.888-8.678,8.678-8.678
			c14.353,0,26.034-11.681,26.034-26.034S75.099,30.373,60.746,30.373S34.712,42.053,34.712,56.407c0,4.799-3.888,8.678-8.678,8.678
			s-8.678-3.879-8.678-8.678c0-23.925,19.465-43.39,43.39-43.39s43.39,19.465,43.39,43.39S84.671,99.797,60.746,99.797"/>
	</g>
	<g>
		<polygon style="fill:#E1705C;" points="69.42,247.322 121.488,247.322 121.488,195.254 69.42,195.254 		"/>
		<polygon style="fill:#E1705C;" points="173.556,247.322 225.624,247.322 225.624,195.254 173.556,195.254 		"/>
		<polygon style="fill:#E1705C;" points="277.691,247.322 329.759,247.322 329.759,195.254 277.691,195.254 		"/>
		<polygon style="fill:#E1705C;" points="381.827,247.322 433.895,247.322 433.895,195.254 381.827,195.254 		"/>
		<polygon style="fill:#E1705C;" points="69.42,342.78 121.488,342.78 121.488,290.712 69.42,290.712 		"/>
		<polygon style="fill:#E1705C;" points="173.556,342.78 225.624,342.78 225.624,290.712 173.556,290.712 		"/>
		<polygon style="fill:#E1705C;" points="277.691,342.78 329.759,342.78 329.759,290.712 277.691,290.712 		"/>
		<polygon style="fill:#E1705C;" points="381.827,342.78 433.895,342.78 433.895,290.712 381.827,290.712 		"/>
		<polygon style="fill:#E1705C;" points="69.42,438.237 121.488,438.237 121.488,386.169 69.42,386.169 		"/>
		<polygon style="fill:#E1705C;" points="173.556,438.237 225.624,438.237 225.624,386.169 173.556,386.169 		"/>
		<polygon style="fill:#E1705C;" points="277.691,438.237 329.759,438.237 329.759,386.169 277.691,386.169 		"/>
		<polygon style="fill:#E1705C;" points="381.827,438.237 433.895,438.237 433.895,386.169 381.827,386.169 		"/>
	</g>
</g>
</svg>