<?xml version="1.0" encoding="iso-8859-1"?>
<!-- Uploaded to: SVG Repo, www.svgrepo.com, Generator: SVG Repo Mixer Tools -->
<svg height="800px" width="800px" version="1.1" id="Layer_1" xmlns="http://www.w3.org/2000/svg" xmlns:xlink="http://www.w3.org/1999/xlink" 
	 viewBox="0 0 503.325 503.325" xml:space="preserve">
<g>
	<path style="fill:#BDC3C7;" d="M156.206,112.814h190.915V52.068c0-4.782-3.896-8.678-8.678-8.678H164.884
		c-4.782,0-8.678,3.896-8.678,8.678V112.814z M355.799,130.169H147.528c-4.79,0-8.678-3.888-8.678-8.678V52.068
		c0-14.353,11.681-26.034,26.034-26.034h173.559c14.353,0,26.034,11.681,26.034,26.034v69.424
		C364.477,126.282,360.589,130.169,355.799,130.169L355.799,130.169z"/>
	<path style="fill:#805333;" d="M0.003,130.169c0-9.589,7.767-17.356,17.356-17.356h468.61c9.589,0,17.356,7.767,17.356,17.356
		v329.763c0,9.589-7.767,17.356-17.356,17.356H17.359c-9.589,0-17.356-7.767-17.356-17.356V130.169z"/>
	<g>
		<polygon style="fill:#E4C05C;" points="95.457,182.237 164.88,182.237 164.88,112.814 95.457,112.814 		"/>
		<polygon style="fill:#E4C05C;" points="338.44,182.237 407.864,182.237 407.864,112.814 338.44,112.814 		"/>
	</g>
	<g>
		<polygon style="fill:#CB8252;" points="112.813,477.288 147.525,477.288 147.525,182.237 112.813,182.237 		"/>
		<polygon style="fill:#CB8252;" points="355.796,477.288 390.508,477.288 390.508,182.237 355.796,182.237 		"/>
	</g>
	<polygon style="fill:#E9866F;" points="199.592,260.339 303.728,260.339 303.728,208.271 199.592,208.271 	"/>
	<g>
		<path style="fill:#E4C05C;" d="M60.529,112.814H17.356C7.775,112.814,0,120.58,0,130.169v50.853
			C33.124,175.113,58.524,147.135,60.529,112.814"/>
		<path style="fill:#E4C05C;" d="M0.003,416.762v43.173c0,9.58,7.767,17.356,17.356,17.356h52.068
			C63.517,444.167,34.324,418.767,0.003,416.762"/>
		<path style="fill:#E4C05C;" d="M442.579,112.814h43.39c9.58,0,17.356,7.767,17.356,17.356v52.068
			C470.201,176.328,444.583,147.135,442.579,112.814"/>
		<path style="fill:#E4C05C;" d="M503.325,416.542v43.173c0,9.58-7.767,17.573-17.356,17.573h-52.068
			C439.811,444.164,469.003,418.547,503.325,416.542"/>
	</g>
</g>
</svg>