<?xml version="1.0" encoding="iso-8859-1"?>
<!-- Uploaded to: SVG Repo, www.svgrepo.com, Generator: SVG Repo Mixer Tools -->
<svg height="800px" width="800px" version="1.1" id="Layer_1" xmlns="http://www.w3.org/2000/svg" xmlns:xlink="http://www.w3.org/1999/xlink" 
	 viewBox="0 0 503.322 503.322" xml:space="preserve">
<g>
	<path style="fill:#8B9BC1;" d="M477.288,503.322H26.034C11.655,503.322,0,491.668,0,477.288V26.034C0,11.655,11.655,0,26.034,0
		h451.254c14.379,0,26.034,11.655,26.034,26.034v451.254C503.322,491.668,491.668,503.322,477.288,503.322"/>
	<g>
		<polygon style="fill:#FFFFFF;" points="295.051,225.627 295.051,321.085 208.271,321.085 208.271,225.627 156.203,225.627 
			156.203,468.61 208.271,468.61 208.271,373.153 295.051,373.153 295.051,468.61 347.119,468.61 347.119,225.627 		"/>
		<polygon style="fill:#FFFFFF;" points="251.661,34.843 269.017,78.103 321.085,78.103 277.695,112.814 295.051,164.882 
			251.661,130.17 208.271,164.882 225.627,112.814 182.237,78.103 234.305,78.103 		"/>
		<polygon style="fill:#FFFFFF;" points="95.458,52.068 112.814,95.458 164.881,95.458 121.492,130.039 138.847,182.107 
			95.458,147.525 52.068,182.107 69.424,130.039 26.034,95.458 78.102,95.458 		"/>
		<polygon style="fill:#FFFFFF;" points="407.864,52.068 425.22,95.458 477.288,95.458 433.898,130.039 451.254,182.107 
			407.864,147.525 364.475,182.107 381.831,130.039 338.441,95.458 390.508,95.458 		"/>
	</g>
</g>
</svg>